<svg version="1.1" xmlns="http://www.w3.org/2000/svg" xmlns:xlink="http://www.w3.org/1999/xlink" width="2311.1279296875" height="621"><defs/><g><g transform="translate(10,-142) scale(1,1)"><rect fill="#C0C0C0" stroke="none" x="151" y="159" width="52.341796875" height="44" opacity="0.2"/></g><g transform="translate(10,-142) scale(1,1)"><rect fill="#ffffff" stroke="none" x="144" y="152" width="52.341796875" height="44"/></g><g transform="translate(10,-142) scale(1,1)"><path fill="none" stroke="#000000" d="M 144 152 L 196.341796875 152 L 196.341796875 196 L 144 196 L 144 152 Z Z" stroke-miterlimit="10"/></g><g transform="translate(10,-142) scale(1,1)"><path fill="none" stroke="#000000" d="M 144 177 L 196.341796875 177" stroke-miterlimit="10"/></g><g transform="translate(10,-142) scale(1,1)"><path fill="none" stroke="#000000" d="M 144 187 L 196.341796875 187" stroke-miterlimit="10"/></g><g transform="translate(10,-142) scale(1,1)"><g><path fill="none" stroke="none"/><text fill="#000000" stroke="none" font-family="Arial" font-size="13px" font-style="normal" font-weight="bold" text-decoration="none" x="148.5" y="170">Cliente</text></g></g><g transform="translate(10,-142) scale(1,1)"><rect fill="#C0C0C0" stroke="none" x="111" y="279" width="140.13623046875" height="87" opacity="0.2"/></g><g transform="translate(10,-142) scale(1,1)"><rect fill="#ffffff" stroke="none" x="104" y="272" width="140.13623046875" height="87"/></g><g transform="translate(10,-142) scale(1,1)"><path fill="none" stroke="#000000" d="M 104 272 L 244.13623046875 272 L 244.13623046875 359 L 104 359 L 104 272 Z Z" stroke-miterlimit="10"/></g><g transform="translate(10,-142) scale(1,1)"><path fill="none" stroke="#000000" d="M 104 297 L 244.13623046875 297" stroke-miterlimit="10"/></g><g transform="translate(10,-142) scale(1,1)"><path fill="none" stroke="#000000" d="M 104 307 L 244.13623046875 307" stroke-miterlimit="10"/></g><g transform="translate(10,-142) scale(1,1)"><g><path fill="none" stroke="none"/><text fill="#000000" stroke="none" font-family="Arial" font-size="13px" font-style="normal" font-weight="bold" text-decoration="none" x="157.811767578125" y="290">Pizza</text></g></g><g transform="translate(10,-142) scale(1,1)"><g><path fill="none" stroke="none"/><text fill="#000000" stroke="none" font-family="Arial" font-size="13px" font-style="normal" font-weight="normal" text-decoration="none" x="109" y="323">+createAmasarPizza()</text></g></g><g transform="translate(10,-142) scale(1,1)"><g><path fill="none" stroke="none"/><text fill="#000000" stroke="none" font-family="Arial" font-size="13px" font-style="normal" font-weight="normal" text-decoration="none" x="109" y="338">+createHornearPizza()</text></g></g><g transform="translate(10,-142) scale(1,1)"><g><path fill="none" stroke="none"/><text fill="#000000" stroke="none" font-family="Arial" font-size="13px" font-style="normal" font-weight="normal" text-decoration="none" x="109" y="353">+createMoldearPizza()</text></g></g><g transform="translate(10,-142) scale(1,1)"><rect fill="#C0C0C0" stroke="none" x="7" y="447" width="322.9677734375" height="87" opacity="0.2"/></g><g transform="translate(10,-142) scale(1,1)"><rect fill="#ffffff" stroke="none" x="0" y="440" width="322.9677734375" height="87"/></g><g transform="translate(10,-142) scale(1,1)"><path fill="none" stroke="#000000" d="M 0 440 L 322.9677734375 440 L 322.9677734375 527 L 0 527 L 0 440 Z Z" stroke-miterlimit="10"/></g><g transform="translate(10,-142) scale(1,1)"><path fill="none" stroke="#000000" d="M 0 465 L 322.9677734375 465" stroke-miterlimit="10"/></g><g transform="translate(10,-142) scale(1,1)"><path fill="none" stroke="#000000" d="M 0 475 L 322.9677734375 475" stroke-miterlimit="10"/></g><g transform="translate(10,-142) scale(1,1)"><g><path fill="none" stroke="none"/><text fill="#000000" stroke="none" font-family="Arial" font-size="13px" font-style="normal" font-weight="bold" text-decoration="none" x="119.941650390625" y="458">PizzaDelgada</text></g></g><g transform="translate(10,-142) scale(1,1)"><g><path fill="none" stroke="none"/><text fill="#000000" stroke="none" font-family="Arial" font-size="13px" font-style="normal" font-weight="normal" text-decoration="none" x="5" y="491">+createAmasarPizzaDelgada(): amasarPizzaDelgada</text></g></g><g transform="translate(10,-142) scale(1,1)"><g><path fill="none" stroke="none"/><text fill="#000000" stroke="none" font-family="Arial" font-size="13px" font-style="normal" font-weight="normal" text-decoration="none" x="5" y="506">+createHornearPizzaDelgada(): hornearPizzaDelgada</text></g></g><g transform="translate(10,-142) scale(1,1)"><g><path fill="none" stroke="none"/><text fill="#000000" stroke="none" font-family="Arial" font-size="13px" font-style="normal" font-weight="normal" text-decoration="none" x="5" y="521">+createModelarPizzaDelgada(): moldearPizzaDelgada</text></g></g><g transform="translate(10,-142) scale(1,1)"><rect fill="#C0C0C0" stroke="none" x="335" y="447" width="312.8369140625" height="87" opacity="0.2"/></g><g transform="translate(10,-142) scale(1,1)"><rect fill="#ffffff" stroke="none" x="328" y="440" width="312.8369140625" height="87"/></g><g transform="translate(10,-142) scale(1,1)"><path fill="none" stroke="#000000" d="M 328 440 L 640.8369140625 440 L 640.8369140625 527 L 328 527 L 328 440 Z Z" stroke-miterlimit="10"/></g><g transform="translate(10,-142) scale(1,1)"><path fill="none" stroke="#000000" d="M 328 465 L 640.8369140625 465" stroke-miterlimit="10"/></g><g transform="translate(10,-142) scale(1,1)"><path fill="none" stroke="#000000" d="M 328 475 L 640.8369140625 475" stroke-miterlimit="10"/></g><g transform="translate(10,-142) scale(1,1)"><g><path fill="none" stroke="none"/><text fill="#000000" stroke="none" font-family="Arial" font-size="13px" font-style="normal" font-weight="bold" text-decoration="none" x="444.685302734375" y="458">PizzaIntegral</text></g></g><g transform="translate(10,-142) scale(1,1)"><g><path fill="none" stroke="none"/><text fill="#000000" stroke="none" font-family="Arial" font-size="13px" font-style="normal" font-weight="normal" text-decoration="none" x="333" y="491">+createAmasarPizzaIntegral(): amasarPizzaIntegral</text></g></g><g transform="translate(10,-142) scale(1,1)"><g><path fill="none" stroke="none"/><text fill="#000000" stroke="none" font-family="Arial" font-size="13px" font-style="normal" font-weight="normal" text-decoration="none" x="333" y="506">+createHornearPizzaIntegral(): hornearPizzaIntegral</text></g></g><g transform="translate(10,-142) scale(1,1)"><g><path fill="none" stroke="none"/><text fill="#000000" stroke="none" font-family="Arial" font-size="13px" font-style="normal" font-weight="normal" text-decoration="none" x="333" y="521">+createModelarPizzaIntegral(): modelarPizzaIntegral</text></g></g><g transform="translate(10,-142) scale(1,1)"><rect fill="#C0C0C0" stroke="none" x="655" y="447" width="311.376953125" height="87" opacity="0.2"/></g><g transform="translate(10,-142) scale(1,1)"><rect fill="#ffffff" stroke="none" x="648" y="440" width="311.376953125" height="87"/></g><g transform="translate(10,-142) scale(1,1)"><path fill="none" stroke="#000000" d="M 648 440 L 959.376953125 440 L 959.376953125 527 L 648 527 L 648 440 Z Z" stroke-miterlimit="10"/></g><g transform="translate(10,-142) scale(1,1)"><path fill="none" stroke="#000000" d="M 648 465 L 959.376953125 465" stroke-miterlimit="10"/></g><g transform="translate(10,-142) scale(1,1)"><path fill="none" stroke="#000000" d="M 648 475 L 959.376953125 475" stroke-miterlimit="10"/></g><g transform="translate(10,-142) scale(1,1)"><g><path fill="none" stroke="none"/><text fill="#000000" stroke="none" font-family="Arial" font-size="13px" font-style="normal" font-weight="bold" text-decoration="none" x="765.03125" y="458">PizzaGruesa</text></g></g><g transform="translate(10,-142) scale(1,1)"><g><path fill="none" stroke="none"/><text fill="#000000" stroke="none" font-family="Arial" font-size="13px" font-style="normal" font-weight="normal" text-decoration="none" x="653" y="491">+createAmasarPizzaGruesa(): amasarPizzaGruesa</text></g></g><g transform="translate(10,-142) scale(1,1)"><g><path fill="none" stroke="none"/><text fill="#000000" stroke="none" font-family="Arial" font-size="13px" font-style="normal" font-weight="normal" text-decoration="none" x="653" y="506">+createHornearPizzaGruesa(): hornearPizzaGruesa</text></g></g><g transform="translate(10,-142) scale(1,1)"><g><path fill="none" stroke="none"/><text fill="#000000" stroke="none" font-family="Arial" font-size="13px" font-style="normal" font-weight="normal" text-decoration="none" x="653" y="521">+createMoldearPizzaGruesa(): modelarPizzaGruesa</text></g></g><g transform="translate(10,-142) scale(1,1)"><path fill="none" stroke="#000000" d="M 164 439 L 171 360" stroke-miterlimit="10"/></g><g transform="translate(10,-142) scale(1,1)"><path fill="none" stroke="#000000" d="M 174.29611347976072 370.4945526788206 L 171 360 L 165.90993482838573 369.75147355781263" stroke-miterlimit="10"/></g><g transform="translate(10,-142) scale(1,1)"><path fill="none" stroke="#000000" d="M 403 439 L 245 354" stroke-miterlimit="10"/></g><g transform="translate(10,-142) scale(1,1)"><path fill="none" stroke="#000000" d="M 255.94409204524592 355.10763229692213 L 245 354 L 251.95542739090826 362.52185600733804" stroke-miterlimit="10"/></g><g transform="translate(10,-142) scale(1,1)"><path fill="none" stroke="#000000" d="M 647 441 L 245 334" stroke-miterlimit="10"/></g><g transform="translate(10,-142) scale(1,1)"><path fill="none" stroke="#000000" d="M 255.90349280843242 332.5460933398383 L 245 334 L 253.73800096207393 340.6818664448487" stroke-miterlimit="10"/></g><g transform="translate(10,-142) scale(1,1)"><path fill="none" stroke="#000000" d="M 171 197 L 173 271" stroke-miterlimit="10"/></g><g transform="translate(10,-142) scale(1,1)"><path fill="none" stroke="#000000" d="M 168.5174522184309 260.95476404528245 L 173 271 L 176.93341452885946 260.72730560446007" stroke-miterlimit="10"/></g><g transform="translate(10,-142) scale(1,1)"><rect fill="#C0C0C0" stroke="none" x="1103" y="359" width="127" height="57" opacity="0.2"/></g><g transform="translate(10,-142) scale(1,1)"><rect fill="#ffffff" stroke="none" x="1096" y="352" width="127" height="57"/></g><g transform="translate(10,-142) scale(1,1)"><path fill="none" stroke="#000000" d="M 1096 352 L 1223 352 L 1223 409 L 1096 409 L 1096 352 Z Z" stroke-miterlimit="10"/></g><g transform="translate(10,-142) scale(1,1)"><path fill="none" stroke="#000000" d="M 1096 377 L 1223 377" stroke-miterlimit="10"/></g><g transform="translate(10,-142) scale(1,1)"><path fill="none" stroke="#000000" d="M 1096 387 L 1223 387" stroke-miterlimit="10"/></g><g transform="translate(10,-142) scale(1,1)"><g><path fill="none" stroke="none"/><text fill="#000000" stroke="none" font-family="Arial" font-size="13px" font-style="normal" font-weight="bold" text-decoration="none" x="1135.65185546875" y="370">Amasar</text></g></g><g transform="translate(10,-142) scale(1,1)"><g><path fill="none" stroke="none"/><text fill="#000000" stroke="none" font-family="Arial" font-size="13px" font-style="normal" font-weight="normal" text-decoration="none" x="1101" y="403">+amasar()</text></g></g><g transform="translate(10,-142) scale(1,1)"><rect fill="#C0C0C0" stroke="none" x="1359" y="343" width="89.57080078125" height="57" opacity="0.2"/></g><g transform="translate(10,-142) scale(1,1)"><rect fill="#ffffff" stroke="none" x="1352" y="336" width="89.57080078125" height="57"/></g><g transform="translate(10,-142) scale(1,1)"><path fill="none" stroke="#000000" d="M 1352 336 L 1441.57080078125 336 L 1441.57080078125 393 L 1352 393 L 1352 336 Z Z" stroke-miterlimit="10"/></g><g transform="translate(10,-142) scale(1,1)"><path fill="none" stroke="#000000" d="M 1352 361 L 1441.57080078125 361" stroke-miterlimit="10"/></g><g transform="translate(10,-142) scale(1,1)"><path fill="none" stroke="#000000" d="M 1352 371 L 1441.57080078125 371" stroke-miterlimit="10"/></g><g transform="translate(10,-142) scale(1,1)"><g><path fill="none" stroke="none"/><text fill="#000000" stroke="none" font-family="Arial" font-size="13px" font-style="normal" font-weight="bold" text-decoration="none" x="1371.861328125" y="354">Hornear</text></g></g><g transform="translate(10,-142) scale(1,1)"><g><path fill="none" stroke="none"/><text fill="#000000" stroke="none" font-family="Arial" font-size="13px" font-style="normal" font-weight="normal" text-decoration="none" x="1357" y="387">+hornear()</text></g></g><g transform="translate(10,-142) scale(1,1)"><rect fill="#C0C0C0" stroke="none" x="1879" y="199" width="156.05615234375" height="72" opacity="0.2"/></g><g transform="translate(10,-142) scale(1,1)"><rect fill="#ffffff" stroke="none" x="1872" y="192" width="156.05615234375" height="72"/></g><g transform="translate(10,-142) scale(1,1)"><path fill="none" stroke="#000000" d="M 1872 192 L 2028.05615234375 192 L 2028.05615234375 264 L 1872 264 L 1872 192 Z Z" stroke-miterlimit="10"/></g><g transform="translate(10,-142) scale(1,1)"><path fill="none" stroke="#000000" d="M 1872 217 L 2028.05615234375 217" stroke-miterlimit="10"/></g><g transform="translate(10,-142) scale(1,1)"><path fill="none" stroke="#000000" d="M 1872 227 L 2028.05615234375 227" stroke-miterlimit="10"/></g><g transform="translate(10,-142) scale(1,1)"><g><path fill="none" stroke="none"/><text fill="#000000" stroke="none" font-family="Arial" font-size="13px" font-style="normal" font-weight="bold" text-decoration="none" x="1925.107177734375" y="210">Moldear</text></g></g><g transform="translate(10,-142) scale(1,1)"><g><path fill="none" stroke="none"/><text fill="#000000" stroke="none" font-family="Arial" font-size="13px" font-style="normal" font-weight="normal" text-decoration="none" x="1877" y="243">+moldearPizzaMediana()</text></g></g><g transform="translate(10,-142) scale(1,1)"><g><path fill="none" stroke="none"/><text fill="#000000" stroke="none" font-family="Arial" font-size="13px" font-style="normal" font-weight="normal" text-decoration="none" x="1877" y="258">+moldearPizzaPeque単a()</text></g></g><g transform="translate(10,-142) scale(1,1)"><path fill="none" stroke="#000000" d="M 197 180 L 1095 367" stroke-miterlimit="10"/></g><g transform="translate(10,-142) scale(1,1)"><path fill="none" stroke="#000000" d="M 1084.1925734685472 369.0492759129145 L 1095 367 L 1085.9089385178902 360.80705230697845" stroke-miterlimit="10"/></g><g transform="translate(10,-142) scale(1,1)"><path fill="none" stroke="#000000" d="M 197 178 L 1351 357" stroke-miterlimit="10"/></g><g transform="translate(10,-142) scale(1,1)"><path fill="none" stroke="#000000" d="M 1340.3121855353163 359.6020418844624 L 1351 357 L 1341.6026524545236 351.2824953773932" stroke-miterlimit="10"/></g><g transform="translate(10,-142) scale(1,1)"><path fill="none" stroke="#000000" d="M 197 175 L 1871 226" stroke-miterlimit="10"/></g><g transform="translate(10,-142) scale(1,1)"><path fill="none" stroke="#000000" d="M 1860.7138507471211 229.89809357859681 L 1871 226 L 1860.9702257078668 221.48296251411787" stroke-miterlimit="10"/></g><g transform="translate(10,-142) scale(1,1)"><rect fill="#C0C0C0" stroke="none" x="1023" y="503" width="137.62255859375" height="57" opacity="0.2"/></g><g transform="translate(10,-142) scale(1,1)"><rect fill="#ffffff" stroke="none" x="1016" y="496" width="137.62255859375" height="57"/></g><g transform="translate(10,-142) scale(1,1)"><path fill="none" stroke="#000000" d="M 1016 496 L 1153.62255859375 496 L 1153.62255859375 553 L 1016 553 L 1016 496 Z Z" stroke-miterlimit="10"/></g><g transform="translate(10,-142) scale(1,1)"><path fill="none" stroke="#000000" d="M 1016 521 L 1153.62255859375 521" stroke-miterlimit="10"/></g><g transform="translate(10,-142) scale(1,1)"><path fill="none" stroke="#000000" d="M 1016 531 L 1153.62255859375 531" stroke-miterlimit="10"/></g><g transform="translate(10,-142) scale(1,1)"><g><path fill="none" stroke="none"/><text fill="#000000" stroke="none" font-family="Arial" font-size="13px" font-style="normal" font-weight="bold" text-decoration="none" x="1020.5" y="514">amasarPizzaDelgada</text></g></g><g transform="translate(10,-142) scale(1,1)"><g><path fill="none" stroke="none"/><text fill="#000000" stroke="none" font-family="Arial" font-size="13px" font-style="normal" font-weight="normal" text-decoration="none" x="1021" y="547">+amasar(): void</text></g></g><g transform="translate(10,-142) scale(1,1)"><rect fill="#C0C0C0" stroke="none" x="1167" y="503" width="134.00439453125" height="57" opacity="0.2"/></g><g transform="translate(10,-142) scale(1,1)"><rect fill="#ffffff" stroke="none" x="1160" y="496" width="134.00439453125" height="57"/></g><g transform="translate(10,-142) scale(1,1)"><path fill="none" stroke="#000000" d="M 1160 496 L 1294.00439453125 496 L 1294.00439453125 553 L 1160 553 L 1160 496 Z Z" stroke-miterlimit="10"/></g><g transform="translate(10,-142) scale(1,1)"><path fill="none" stroke="#000000" d="M 1160 521 L 1294.00439453125 521" stroke-miterlimit="10"/></g><g transform="translate(10,-142) scale(1,1)"><path fill="none" stroke="#000000" d="M 1160 531 L 1294.00439453125 531" stroke-miterlimit="10"/></g><g transform="translate(10,-142) scale(1,1)"><g><path fill="none" stroke="none"/><text fill="#000000" stroke="none" font-family="Arial" font-size="13px" font-style="normal" font-weight="bold" text-decoration="none" x="1164.5" y="514">amasarPizzaIntegral</text></g></g><g transform="translate(10,-142) scale(1,1)"><g><path fill="none" stroke="none"/><text fill="#000000" stroke="none" font-family="Arial" font-size="13px" font-style="normal" font-weight="normal" text-decoration="none" x="1165" y="547">+amasar(): void</text></g></g><g transform="translate(10,-142) scale(1,1)"><rect fill="#C0C0C0" stroke="none" x="1311" y="503" width="131.8525390625" height="57" opacity="0.2"/></g><g transform="translate(10,-142) scale(1,1)"><rect fill="#ffffff" stroke="none" x="1304" y="496" width="131.8525390625" height="57"/></g><g transform="translate(10,-142) scale(1,1)"><path fill="none" stroke="#000000" d="M 1304 496 L 1435.8525390625 496 L 1435.8525390625 553 L 1304 553 L 1304 496 Z Z" stroke-miterlimit="10"/></g><g transform="translate(10,-142) scale(1,1)"><path fill="none" stroke="#000000" d="M 1304 521 L 1435.8525390625 521" stroke-miterlimit="10"/></g><g transform="translate(10,-142) scale(1,1)"><path fill="none" stroke="#000000" d="M 1304 531 L 1435.8525390625 531" stroke-miterlimit="10"/></g><g transform="translate(10,-142) scale(1,1)"><g><path fill="none" stroke="none"/><text fill="#000000" stroke="none" font-family="Arial" font-size="13px" font-style="normal" font-weight="bold" text-decoration="none" x="1308.5" y="514">amasarPizzaGruesa</text></g></g><g transform="translate(10,-142) scale(1,1)"><g><path fill="none" stroke="none"/><text fill="#000000" stroke="none" font-family="Arial" font-size="13px" font-style="normal" font-weight="normal" text-decoration="none" x="1309" y="547">+amasar(): void</text></g></g><g transform="translate(10,-142) scale(1,1)"><path fill="none" stroke="#000000" d="M 1099 495 L 1143 410" stroke-miterlimit="10" stroke-dasharray="3"/></g><g transform="translate(10,-142) scale(1,1)"><path fill="none" stroke="#000000" d="M 1142.066494844078 420.9603178842526 L 1143 410 L 1134.5897970740598 417.0900272738902" stroke-miterlimit="10"/></g><g transform="translate(10,-142) scale(1,1)"><path fill="none" stroke="#000000" d="M 1213 495 L 1173 410" stroke-miterlimit="10" stroke-dasharray="3"/></g><g transform="translate(10,-142) scale(1,1)"><path fill="none" stroke="#000000" d="M 1181.136087228451 417.4029780906765 L 1173 410 L 1173.5183864426701 420.9877784604558" stroke-miterlimit="10"/></g><g transform="translate(10,-142) scale(1,1)"><path fill="none" stroke="#000000" d="M 1327 495 L 1203 410" stroke-miterlimit="10" stroke-dasharray="3"/></g><g transform="translate(10,-142) scale(1,1)"><path fill="none" stroke="#000000" d="M 1213.7624093614572 412.27388318442604 L 1203 410 L 1209.0022944220584 419.2180508607258" stroke-miterlimit="10"/></g><g transform="translate(10,-142) scale(1,1)"><rect fill="#C0C0C0" stroke="none" x="1511" y="295" width="140.4853515625" height="57" opacity="0.2"/></g><g transform="translate(10,-142) scale(1,1)"><rect fill="#ffffff" stroke="none" x="1504" y="288" width="140.4853515625" height="57"/></g><g transform="translate(10,-142) scale(1,1)"><path fill="none" stroke="#000000" d="M 1504 288 L 1644.4853515625 288 L 1644.4853515625 345 L 1504 345 L 1504 288 Z Z" stroke-miterlimit="10"/></g><g transform="translate(10,-142) scale(1,1)"><path fill="none" stroke="#000000" d="M 1504 313 L 1644.4853515625 313" stroke-miterlimit="10"/></g><g transform="translate(10,-142) scale(1,1)"><path fill="none" stroke="#000000" d="M 1504 323 L 1644.4853515625 323" stroke-miterlimit="10"/></g><g transform="translate(10,-142) scale(1,1)"><g><path fill="none" stroke="none"/><text fill="#000000" stroke="none" font-family="Arial" font-size="13px" font-style="normal" font-weight="bold" text-decoration="none" x="1508.5" y="306">hornearPizzaDelgada</text></g></g><g transform="translate(10,-142) scale(1,1)"><g><path fill="none" stroke="none"/><text fill="#000000" stroke="none" font-family="Arial" font-size="13px" font-style="normal" font-weight="normal" text-decoration="none" x="1509" y="339">+hornear(): void</text></g></g><g transform="translate(10,-142) scale(1,1)"><rect fill="#C0C0C0" stroke="none" x="1519" y="375" width="136.8671875" height="57" opacity="0.2"/></g><g transform="translate(10,-142) scale(1,1)"><rect fill="#ffffff" stroke="none" x="1512" y="368" width="136.8671875" height="57"/></g><g transform="translate(10,-142) scale(1,1)"><path fill="none" stroke="#000000" d="M 1512 368 L 1648.8671875 368 L 1648.8671875 425 L 1512 425 L 1512 368 Z Z" stroke-miterlimit="10"/></g><g transform="translate(10,-142) scale(1,1)"><path fill="none" stroke="#000000" d="M 1512 393 L 1648.8671875 393" stroke-miterlimit="10"/></g><g transform="translate(10,-142) scale(1,1)"><path fill="none" stroke="#000000" d="M 1512 403 L 1648.8671875 403" stroke-miterlimit="10"/></g><g transform="translate(10,-142) scale(1,1)"><g><path fill="none" stroke="none"/><text fill="#000000" stroke="none" font-family="Arial" font-size="13px" font-style="normal" font-weight="bold" text-decoration="none" x="1516.5" y="386">hornearPizzaIntegral</text></g></g><g transform="translate(10,-142) scale(1,1)"><g><path fill="none" stroke="none"/><text fill="#000000" stroke="none" font-family="Arial" font-size="13px" font-style="normal" font-weight="normal" text-decoration="none" x="1517" y="419">+hornear(): void</text></g></g><g transform="translate(10,-142) scale(1,1)"><rect fill="#C0C0C0" stroke="none" x="1511" y="447" width="134.71533203125" height="57" opacity="0.2"/></g><g transform="translate(10,-142) scale(1,1)"><rect fill="#ffffff" stroke="none" x="1504" y="440" width="134.71533203125" height="57"/></g><g transform="translate(10,-142) scale(1,1)"><path fill="none" stroke="#000000" d="M 1504 440 L 1638.71533203125 440 L 1638.71533203125 497 L 1504 497 L 1504 440 Z Z" stroke-miterlimit="10"/></g><g transform="translate(10,-142) scale(1,1)"><path fill="none" stroke="#000000" d="M 1504 465 L 1638.71533203125 465" stroke-miterlimit="10"/></g><g transform="translate(10,-142) scale(1,1)"><path fill="none" stroke="#000000" d="M 1504 475 L 1638.71533203125 475" stroke-miterlimit="10"/></g><g transform="translate(10,-142) scale(1,1)"><g><path fill="none" stroke="none"/><text fill="#000000" stroke="none" font-family="Arial" font-size="13px" font-style="normal" font-weight="bold" text-decoration="none" x="1508.5" y="458">hornearPizzaGruesa</text></g></g><g transform="translate(10,-142) scale(1,1)"><g><path fill="none" stroke="none"/><text fill="#000000" stroke="none" font-family="Arial" font-size="13px" font-style="normal" font-weight="normal" text-decoration="none" x="1509" y="491">+hornear(): void</text></g></g><g transform="translate(10,-142) scale(1,1)"><path fill="none" stroke="#000000" d="M 1522 439 L 1443 392" stroke-miterlimit="10" stroke-dasharray="3"/></g><g transform="translate(10,-142) scale(1,1)"><path fill="none" stroke="#000000" d="M 1453.8861661557935 393.5784126293388 L 1443 392 L 1449.5815756361692 400.813788183601" stroke-miterlimit="10"/></g><g transform="translate(10,-142) scale(1,1)"><path fill="none" stroke="#000000" d="M 1511 384 L 1443 372" stroke-miterlimit="10" stroke-dasharray="3"/></g><g transform="translate(10,-142) scale(1,1)"><path fill="none" stroke="#000000" d="M 1453.739587562226 369.6206599668646 L 1443 372 L 1452.2764826645753 377.911587720218" stroke-miterlimit="10"/></g><g transform="translate(10,-142) scale(1,1)"><path fill="none" stroke="#000000" d="M 1503 335 L 1443 351" stroke-miterlimit="10" stroke-dasharray="3"/></g><g transform="translate(10,-142) scale(1,1)"><path fill="none" stroke="#000000" d="M 1451.7348960246477 344.3140751246672 L 1443 351 L 1453.9041670298395 352.4488413941362" stroke-miterlimit="10"/></g><g transform="translate(10,-142) scale(1,1)"><rect fill="#C0C0C0" stroke="none" x="1727" y="367" width="187.1279296875" height="72" opacity="0.2"/></g><g transform="translate(10,-142) scale(1,1)"><rect fill="#ffffff" stroke="none" x="1720" y="360" width="187.1279296875" height="72"/></g><g transform="translate(10,-142) scale(1,1)"><path fill="none" stroke="#000000" d="M 1720 360 L 1907.1279296875 360 L 1907.1279296875 432 L 1720 432 L 1720 360 Z Z" stroke-miterlimit="10"/></g><g transform="translate(10,-142) scale(1,1)"><path fill="none" stroke="#000000" d="M 1720 385 L 1907.1279296875 385" stroke-miterlimit="10"/></g><g transform="translate(10,-142) scale(1,1)"><path fill="none" stroke="#000000" d="M 1720 395 L 1907.1279296875 395" stroke-miterlimit="10"/></g><g transform="translate(10,-142) scale(1,1)"><g><path fill="none" stroke="none"/><text fill="#000000" stroke="none" font-family="Arial" font-size="13px" font-style="normal" font-weight="bold" text-decoration="none" x="1746.73583984375" y="378">moldearPizzaDelgada</text></g></g><g transform="translate(10,-142) scale(1,1)"><g><path fill="none" stroke="none"/><text fill="#000000" stroke="none" font-family="Arial" font-size="13px" font-style="normal" font-weight="normal" text-decoration="none" x="1725" y="411">+moldearPizzaMediana(): void</text></g></g><g transform="translate(10,-142) scale(1,1)"><g><path fill="none" stroke="none"/><text fill="#000000" stroke="none" font-family="Arial" font-size="13px" font-style="normal" font-weight="normal" text-decoration="none" x="1725" y="426">+moldearPizzaPeque単a(): void</text></g></g><g transform="translate(10,-142) scale(1,1)"><rect fill="#C0C0C0" stroke="none" x="1919" y="367" width="187.1279296875" height="72" opacity="0.2"/></g><g transform="translate(10,-142) scale(1,1)"><rect fill="#ffffff" stroke="none" x="1912" y="360" width="187.1279296875" height="72"/></g><g transform="translate(10,-142) scale(1,1)"><path fill="none" stroke="#000000" d="M 1912 360 L 2099.1279296875 360 L 2099.1279296875 432 L 1912 432 L 1912 360 Z Z" stroke-miterlimit="10"/></g><g transform="translate(10,-142) scale(1,1)"><path fill="none" stroke="#000000" d="M 1912 385 L 2099.1279296875 385" stroke-miterlimit="10"/></g><g transform="translate(10,-142) scale(1,1)"><path fill="none" stroke="#000000" d="M 1912 395 L 2099.1279296875 395" stroke-miterlimit="10"/></g><g transform="translate(10,-142) scale(1,1)"><g><path fill="none" stroke="none"/><text fill="#000000" stroke="none" font-family="Arial" font-size="13px" font-style="normal" font-weight="bold" text-decoration="none" x="1940.544921875" y="378">moldearPizzaIntegral</text></g></g><g transform="translate(10,-142) scale(1,1)"><g><path fill="none" stroke="none"/><text fill="#000000" stroke="none" font-family="Arial" font-size="13px" font-style="normal" font-weight="normal" text-decoration="none" x="1917" y="411">+moldearPizzaMediana(): void</text></g></g><g transform="translate(10,-142) scale(1,1)"><g><path fill="none" stroke="none"/><text fill="#000000" stroke="none" font-family="Arial" font-size="13px" font-style="normal" font-weight="normal" text-decoration="none" x="1917" y="426">+moldearPizzaPeque単a(): void</text></g></g><g transform="translate(10,-142) scale(1,1)"><rect fill="#C0C0C0" stroke="none" x="2111" y="367" width="187.1279296875" height="72" opacity="0.2"/></g><g transform="translate(10,-142) scale(1,1)"><rect fill="#ffffff" stroke="none" x="2104" y="360" width="187.1279296875" height="72"/></g><g transform="translate(10,-142) scale(1,1)"><path fill="none" stroke="#000000" d="M 2104 360 L 2291.1279296875 360 L 2291.1279296875 432 L 2104 432 L 2104 360 Z Z" stroke-miterlimit="10"/></g><g transform="translate(10,-142) scale(1,1)"><path fill="none" stroke="#000000" d="M 2104 385 L 2291.1279296875 385" stroke-miterlimit="10"/></g><g transform="translate(10,-142) scale(1,1)"><path fill="none" stroke="#000000" d="M 2104 395 L 2291.1279296875 395" stroke-miterlimit="10"/></g><g transform="translate(10,-142) scale(1,1)"><g><path fill="none" stroke="none"/><text fill="#000000" stroke="none" font-family="Arial" font-size="13px" font-style="normal" font-weight="bold" text-decoration="none" x="2133.620849609375" y="378">moldearPizzaGruesa</text></g></g><g transform="translate(10,-142) scale(1,1)"><g><path fill="none" stroke="none"/><text fill="#000000" stroke="none" font-family="Arial" font-size="13px" font-style="normal" font-weight="normal" text-decoration="none" x="2109" y="411">+moldearPizzaMediana(): void</text></g></g><g transform="translate(10,-142) scale(1,1)"><g><path fill="none" stroke="none"/><text fill="#000000" stroke="none" font-family="Arial" font-size="13px" font-style="normal" font-weight="normal" text-decoration="none" x="2109" y="426">+moldearPizzaPeque単a(): void</text></g></g><g transform="translate(10,-142) scale(1,1)"><path fill="none" stroke="#000000" d="M 1843 359 L 1920 265" stroke-miterlimit="10" stroke-dasharray="3"/></g><g transform="translate(10,-142) scale(1,1)"><path fill="none" stroke="#000000" d="M 1916.8164998404604 275.5292605027234 L 1920 265 L 1910.3036139469257 270.19423695163647" stroke-miterlimit="10"/></g><g transform="translate(10,-142) scale(1,1)"><path fill="none" stroke="#000000" d="M 1993 359 L 1962 265" stroke-miterlimit="10" stroke-dasharray="3"/></g><g transform="translate(10,-142) scale(1,1)"><path fill="none" stroke="#000000" d="M 1969.1806330075638 273.3329772356994 L 1962 265 L 1961.1851695820242 275.96977900369654" stroke-miterlimit="10"/></g><g transform="translate(10,-142) scale(1,1)"><path fill="none" stroke="#000000" d="M 2143 359 L 2004 265" stroke-miterlimit="10" stroke-dasharray="3"/></g><g transform="translate(10,-142) scale(1,1)"><path fill="none" stroke="#000000" d="M 2014.776527631027 267.2060036758161 L 2004 265 L 2010.0602756070514 274.18003592403534" stroke-miterlimit="10"/></g><g transform="translate(10,-142) scale(1,1)"><path fill="none" stroke="#000000" d="M 161 528 L 160 752 L 1088 752 L 1085 554" stroke-miterlimit="10"/></g><g transform="translate(10,-142) scale(1,1)"><path fill="none" stroke="#000000" d="M 1089.362996903706 564.0977352915519 L 1085 554 L 1080.9449275976233 564.2252817961895" stroke-miterlimit="10"/></g><g transform="translate(10,-142) scale(1,1)"><path fill="none" stroke="#000000" d="M 161 528 L 160 752 L 1816 752 L 1813 433" stroke-miterlimit="10"/></g><g transform="translate(10,-142) scale(1,1)"><path fill="none" stroke="#000000" d="M 1817.3049011367998 443.1226392903422 L 1813 433 L 1808.8862379004624 443.2018116718752" stroke-miterlimit="10"/></g><g transform="translate(10,-142) scale(1,1)"><path fill="none" stroke="#000000" d="M 485 528 L 488 728 L 1232 728 L 1228 554" stroke-miterlimit="10"/></g><g transform="translate(10,-142) scale(1,1)"><path fill="none" stroke="#000000" d="M 1232.4419688936637 564.0632456169828 L 1228 554 L 1224.025157110015 564.2567355430436" stroke-miterlimit="10"/></g><g transform="translate(10,-142) scale(1,1)"><path fill="none" stroke="#000000" d="M 485 528 L 488 728 L 1680 728 L 1680 400 L 1650 399" stroke-miterlimit="10"/></g><g transform="translate(10,-142) scale(1,1)"><path fill="none" stroke="#000000" d="M 1660.2972729971405 395.13138670550273 L 1650 399 L 1660.0167942583346 403.54574886967976" stroke-miterlimit="10"/></g><g transform="translate(10,-142) scale(1,1)"><path fill="none" stroke="#000000" d="M 485 528 L 488 728 L 2008 728 L 2005 433" stroke-miterlimit="10"/></g><g transform="translate(10,-142) scale(1,1)"><path fill="none" stroke="#000000" d="M 2009.3126439939103 443.1193429520789 L 2005 433 L 2000.8940437903702 443.20495583550473" stroke-miterlimit="10"/></g><g transform="translate(10,-142) scale(1,1)"><path fill="none" stroke="#000000" d="M 804 528 L 808 712 L 1368 712 L 1369 554" stroke-miterlimit="10"/></g><g transform="translate(10,-142) scale(1,1)"><path fill="none" stroke="#000000" d="M 1373.1451140080687 564.1891133009754 L 1369 554 L 1364.726247114499 564.1358293332945" stroke-miterlimit="10"/></g><g transform="translate(10,-142) scale(1,1)"><path fill="none" stroke="#000000" d="M 804 528 L 808 712 L 1576 712 L 1572 498" stroke-miterlimit="10"/></g><g transform="translate(10,-142) scale(1,1)"><path fill="none" stroke="#000000" d="M 1576.3987059624858 508.0822311943137 L 1572 498 L 1567.9811407675297 508.23956886150916" stroke-miterlimit="10"/></g><g transform="translate(10,-142) scale(1,1)"><path fill="none" stroke="#000000" d="M 804 528 L 808 712 L 2200 712 L 2197 433" stroke-miterlimit="10"/></g><g transform="translate(10,-142) scale(1,1)"><path fill="none" stroke="#000000" d="M 2201.3185441812766 443.11682638747754 L 2197 433 L 2192.899995332762 443.20734841810673" stroke-miterlimit="10"/></g><g transform="translate(10,-142) scale(1,1)"><g><path fill="none" stroke="none"/><text fill="#000000" stroke="none" font-family="Arial" font-size="13px" font-style="normal" font-weight="normal" text-decoration="none" x="1117" y="351">&lt;&lt;interface&gt;&gt;</text></g></g><g transform="translate(10,-142) scale(1,1)"><g><path fill="none" stroke="none"/><text fill="#000000" stroke="none" font-family="Arial" font-size="13px" font-style="normal" font-weight="normal" text-decoration="none" x="1901" y="183">&lt;&lt;interface&gt;&gt;</text></g></g><g transform="translate(10,-142) scale(1,1)"><g><path fill="none" stroke="none"/><text fill="#000000" stroke="none" font-family="Arial" font-size="13px" font-style="normal" font-weight="normal" text-decoration="none" x="1365" y="335">&lt;&lt;interface&gt;&gt;</text></g></g><g transform="translate(10,-142) scale(1,1)"><g><path fill="none" stroke="none"/><text fill="#000000" stroke="none" font-family="Arial" font-size="13px" font-style="normal" font-weight="normal" text-decoration="none" x="181" y="271">&lt;&lt;abstract&gt;&gt;</text></g></g><g transform="translate(10,-142) scale(1,1)"><path fill="none" stroke="#000000" d="M 161 528 L 160 752 L 1688 752 L 1688 320 L 1645 319" stroke-miterlimit="10"/></g><g transform="translate(10,-142) scale(1,1)"><path fill="none" stroke="#000000" d="M 1655.2577971173494 315.02789749637543 L 1645 319 L 1655.0620585175946 323.44465728583253" stroke-miterlimit="10"/></g></g></svg>